<svg width="16" height="17" viewBox="0 0 16 17" fill="none" xmlns="http://www.w3.org/2000/svg">
<path d="M12.8488 6.17908C12.88 6.09085 12.908 5.98854 12.9294 5.87069C13.0092 5.43223 12.9957 4.78992 12.7308 3.86264L12.6272 3.5H12.25V4C12.25 3.5 12.2498 3.5 12.2496 3.5L12.2492 3.5L12.2482 3.5L12.2459 3.50001L12.24 3.50007L12.2227 3.50041C12.2088 3.50077 12.1903 3.50144 12.1673 3.50268C12.1216 3.50516 12.0583 3.50991 11.9806 3.51905C11.8256 3.53729 11.6113 3.5732 11.3626 3.64424C10.9424 3.76431 10.4156 3.98739 9.91496 4.40196C9.70791 4.32278 9.47826 4.26677 9.25158 4.22647C8.86578 4.15788 8.4296 4.125 8 4.125C7.5704 4.125 7.13422 4.15788 6.74842 4.22647C6.52174 4.26677 6.29209 4.32278 6.08504 4.40196C5.58442 3.98739 5.05762 3.76431 4.63736 3.64424C4.38874 3.5732 4.17436 3.53729 4.01936 3.51905C3.94169 3.50991 3.87844 3.50516 3.83265 3.50268C3.80974 3.50144 3.79115 3.50077 3.77726 3.50041L3.75999 3.50007L3.75406 3.50001L3.7518 3.5L3.75084 3.5L3.75041 3.5C3.7502 3.5 3.75 3.5 3.75 4V3.5H3.41148L3.28576 3.8143C2.99593 4.53888 2.99522 5.19467 3.06831 5.66978C3.09727 5.85796 3.13786 6.01856 3.17701 6.14534C2.70614 6.75205 2.5 7.5582 2.5 8.5C2.5 9.96831 2.90385 10.9986 3.66552 11.6841C4.21508 12.1788 4.90788 12.453 5.64928 12.6142C5.60975 12.7012 5.57409 12.7961 5.54754 12.8969C5.38428 12.9506 5.19655 12.9848 5.0071 12.9702C4.75019 12.9505 4.45385 12.84 4.17244 12.4793C4.16997 12.4748 4.16732 12.47 4.1645 12.4649C4.14562 12.4308 4.11869 12.384 4.08416 12.3288C4.01573 12.2193 3.91417 12.0712 3.78254 11.9207C3.53765 11.6409 3.09822 11.25 2.5 11.25C2.35922 11.25 2.22698 11.2584 2.11126 11.2825C2.01497 11.3026 1.83335 11.3519 1.70034 11.5091C1.52189 11.7199 1.54976 11.9652 1.61279 12.1151C1.66519 12.2398 1.75024 12.3324 1.8027 12.3848C1.9129 12.495 2.06267 12.6035 2.167 12.679L2.17159 12.6823C2.30324 12.7777 2.36961 12.8267 2.39645 12.8536C2.61804 13.0751 2.70722 13.22 2.74029 13.2861C2.74434 13.2942 2.74753 13.3011 2.75 13.3067V13.3311L2.77566 13.4081C2.92373 13.8523 3.22906 14.4024 3.79212 14.7643C4.24124 15.0531 4.80919 15.1932 5.5 15.1113V15.7498C5.49438 15.7492 5.47185 15.7467 5.42844 15.7366C5.37476 15.724 5.30363 15.7032 5.216 15.672C5.0409 15.6097 4.81632 15.5118 4.55903 15.375C4.04453 15.1013 3.41821 14.6818 2.81336 14.1065C1.6073 12.9592 0.5 11.2081 0.5 8.75C0.5 4.52614 3.77614 1.25 8 1.25C12.2239 1.25 15.5 4.52614 15.5 8.75C15.5 11.2081 14.3927 12.9592 13.1866 14.1065C12.5818 14.6818 11.9555 15.1013 11.441 15.375C11.1837 15.5118 10.9591 15.6097 10.784 15.672C10.6964 15.7032 10.6252 15.724 10.5716 15.7366C10.5282 15.7467 10.5056 15.7492 10.5 15.7498V13.75C10.5 13.3084 10.4241 12.9255 10.3012 12.6087C10.9853 12.4467 11.6693 12.1742 12.2316 11.6921C13.0188 11.0175 13.5 9.99233 13.5 8.5C13.5 7.57555 13.3014 6.78181 12.8488 6.17908ZM2.5 11.6671C2.50051 11.6676 2.50127 11.6686 2.50227 11.6699C2.50123 11.6687 2.50049 11.6679 2.5 11.6673C2.49948 11.6666 2.49925 11.6663 2.4993 11.6663C2.49934 11.6663 2.49958 11.6666 2.5 11.6671Z" fill="#9D9D9D" stroke="#9D9D9D"/>
</svg>
